<svg width="16" height="16" viewBox="0 0 16 5" fill="none" xmlns="http://www.w3.org/2000/svg">
<path d="M2.28571 0C1.02857 0 0 1.02857 0 2.28571C0 3.54286 1.02857 4.57143 2.28571 4.57143C3.54286 4.57143 4.57143 3.54286 4.57143 2.28571C4.57143 1.02857 3.54286 0 2.28571 0ZM8 0C6.74286 0 5.71429 1.02857 5.71429 2.28571C5.71429 3.54286 6.74286 4.57143 8 4.57143C9.25714 4.57143 10.2857 3.54286 10.2857 2.28571C10.2857 1.02857 9.25714 0 8 0ZM13.7143 0C12.4571 0 11.4286 1.02857 11.4286 2.28571C11.4286 3.54286 12.4571 4.57143 13.7143 4.57143C14.9714 4.57143 16 3.54286 16 2.28571C16 1.02857 14.9714 0 13.7143 0Z" fill="white"/>
</svg>
