<svg width="16" height="17" viewBox="0 0 16 17" fill="none" xmlns="http://www.w3.org/2000/svg">
<path fill-rule="evenodd" clip-rule="evenodd" d="M14.7578 2.78841L8.83773 0.182822C8.2841 -0.0609408 7.71543 -0.0609408 7.16227 0.182822L1.24217 2.78841C0.470334 3.12796 0 3.84883 0 4.6925V12.0619C0 12.905 0.470334 13.6258 1.24217 13.9659L7.16227 16.5715C7.7159 16.8153 8.28457 16.8153 8.83773 16.5715L14.7578 13.9659C15.5297 13.6264 16 12.9055 16 12.0619V4.6925C16 3.84933 15.5297 3.12796 14.7578 2.78841V2.78841ZM1.69189 5.11534C1.49136 5.02574 1.40078 4.79034 1.49039 4.5898C1.58 4.38927 1.8154 4.29917 2.01594 4.3883L7.99958 7.06581L13.9832 4.3883C14.1838 4.29869 14.4191 4.38878 14.5088 4.5898C14.5984 4.79033 14.5083 5.02572 14.3073 5.11534L8.39865 7.75894V14.4184C8.39865 14.6393 8.22003 14.8179 7.99915 14.8179C7.77826 14.8179 7.59965 14.6393 7.59965 14.4184V7.75894L1.69103 5.11534H1.69189Z" fill="white"/>
</svg>
