<svg width="16" height="15" viewBox="0 0 16 15" fill="none" xmlns="http://www.w3.org/2000/svg">
<path d="M13.3333 5.25701V3.36525C13.3333 3.31837 13.3271 3.27163 13.3148 3.22636C13.3109 3.21203 13.303 3.19944 13.2981 3.18552C13.2886 3.15565 13.2765 3.12672 13.2619 3.099C13.2539 3.0852 13.2422 3.07382 13.233 3.0607V3.06083C13.2168 3.03552 13.1984 3.01168 13.1782 2.98958C13.1663 2.97753 13.1509 2.96895 13.1378 2.95797C13.117 2.93882 13.0946 2.92141 13.0711 2.90587L8.27105 0.0737935C8.18895 0.0254436 8.09534 0 7.99998 0C7.90462 0 7.81101 0.0254467 7.72891 0.0737935L2.92889 2.90587C2.90532 2.92141 2.88295 2.93882 2.86219 2.95797C2.84907 2.96895 2.8338 2.97753 2.82174 2.98958C2.80152 3.01168 2.78317 3.03552 2.76697 3.06083C2.75772 3.07395 2.74607 3.0852 2.73804 3.09913V3.099C2.72344 3.12672 2.71138 3.15565 2.70188 3.18552C2.69679 3.19945 2.68902 3.21203 2.68513 3.22636C2.67281 3.27163 2.66665 3.31837 2.66665 3.36525V5.25701C0.972998 6.26282 0 7.69384 0 9.23211C0 12.173 3.5887 14.5653 7.99992 14.5653V14.5651C9.28832 14.569 10.5681 14.3557 11.7858 13.9341L11.7235 14.0822V14.0821C11.6496 14.2578 11.675 14.4595 11.7902 14.6114C11.9054 14.7631 12.0929 14.842 12.2818 14.818C12.471 14.7942 12.6329 14.6714 12.7068 14.4957L13.2834 13.1253H13.2832C13.3148 13.0585 13.332 12.9857 13.3333 12.9118L13.3323 12.9063C13.3344 12.8001 13.3045 12.6956 13.2464 12.6064C13.1884 12.5174 13.1048 12.4479 13.0068 12.4069L11.6162 11.822C11.4405 11.7481 11.2388 11.7735 11.0869 11.8887C10.9352 12.0039 10.8563 12.1914 10.8801 12.3804C10.9041 12.5695 11.0269 12.7314 11.2026 12.8053L11.4679 12.9169C10.3535 13.3069 9.18068 13.5036 7.99991 13.4986C4.1767 13.4986 1.06662 11.5844 1.06662 9.23168C1.13948 8.12864 1.73386 7.12633 2.66668 6.53328V9.23168C2.66654 9.42039 2.76632 9.59518 2.92891 9.69104L7.72893 12.5231C7.81103 12.5715 7.90465 12.5971 8 12.5971C8.09536 12.5971 8.18898 12.5715 8.27107 12.5231L13.0711 9.69104C13.2337 9.59515 13.3335 9.42038 13.3333 9.23168V6.53328C14.2661 7.12633 14.8605 8.12864 14.9334 9.23168C14.9334 9.42226 15.035 9.59823 15.2 9.69362C15.365 9.78884 15.5683 9.78884 15.7333 9.69362C15.8983 9.59826 16 9.42227 16 9.23168C16 7.69365 15.027 6.2626 13.3333 5.25692L13.3333 5.25701ZM8.00014 1.15265L11.7503 3.36542L8.00014 5.5782L4.24995 3.36542L8.00014 1.15265ZM3.73326 4.2993L7.46665 6.50203V11.1299L3.73326 8.92721V4.2993ZM8.53329 11.1301V6.50217L12.2667 4.2993V8.92755L8.53329 11.1301Z" fill="white"/>
</svg>
