<svg width="16" height="12" viewBox="0 0 16 12" fill="none" xmlns="http://www.w3.org/2000/svg">
<path d="M15.632 0.137433C15.5154 0.0585196 15.38 0.0117857 15.2395 0.00195303C15.0991 -0.00787965 14.9585 0.0195375 14.832 0.0814344C12.6694 0.984588 10.3435 1.43125 8.00013 1.39341C5.64603 1.43568 3.30879 0.98893 1.13624 0.0814344C1.00976 0.0195375 0.869185 -0.00787965 0.728718 0.00195303C0.588251 0.0117857 0.452868 0.0585196 0.336248 0.137433C0.229504 0.213372 0.143042 0.314362 0.084457 0.431531C0.0258722 0.548701 -0.00304247 0.678465 0.000253252 0.809423V10.4093C0.000476239 10.5431 0.0342819 10.6748 0.0985736 10.7922C0.162865 10.9096 0.255588 11.009 0.368247 11.0813C0.484868 11.1602 0.620251 11.2069 0.760718 11.2167C0.901184 11.2266 1.04176 11.1992 1.16823 11.1373C3.33088 10.2341 5.65678 9.78745 8.00013 9.82528C10.3542 9.78302 12.6915 10.2298 14.864 11.1373C14.9699 11.1839 15.0843 11.2084 15.2 11.2093C15.3533 11.2089 15.5032 11.1644 15.632 11.0813C15.7447 11.009 15.8374 10.9096 15.9017 10.7922C15.966 10.6748 15.9998 10.5431 16 10.4093V0.809423C15.9998 0.67557 15.966 0.543912 15.9017 0.42651C15.8374 0.309108 15.7447 0.209714 15.632 0.137433ZM14.4 9.22529C12.336 8.54318 10.1738 8.20534 8.00013 8.22531C5.82642 8.20534 3.66424 8.54318 1.60023 9.22529V2.0254C3.66424 2.70751 5.82642 3.04535 8.00013 3.02539C10.1738 3.04535 12.336 2.70751 14.4 2.0254V9.22529Z" fill="white"/>
</svg>
