<svg width="16" height="16" viewBox="0 0 32 32" fill="none" xmlns="http://www.w3.org/2000/svg">
<path d="M13.589 0.000433403C9.2375 0.00229283 5.15001 2.08711 2.59388 5.60813C0.0374689 9.12954 -0.679131 13.6614 0.666386 17.799C2.01228 21.937 5.25702 25.181 9.39573 26.5254C13.5341 27.8694 18.0659 27.1513 21.5866 24.5938L28.3576 31.3648C28.8965 31.9037 29.6823 32.1142 30.4186 31.9171C31.1549 31.7196 31.7298 31.1446 31.9274 30.4083C32.1245 29.6719 31.914 28.8861 31.3751 28.3473L24.6041 21.5763C26.5818 18.8581 27.4811 15.5033 27.1289 12.1604C26.7764 8.81754 25.1973 5.72417 22.6963 3.47793C20.1957 1.23169 16.9506 -0.00739272 13.5895 3.31856e-05L13.589 0.000433403ZM13.589 22.9255C11.1144 22.9255 8.74139 21.9427 6.99164 20.1929C5.24189 18.4431 4.259 16.0701 4.259 13.5956C4.259 11.121 5.24189 8.74796 6.99164 6.99821C8.74139 5.24846 11.1144 4.26557 13.589 4.26557C16.0635 4.26557 18.4366 5.24846 20.1863 6.99821C21.9361 8.74796 22.919 11.121 22.919 13.5956C22.916 16.069 21.9324 18.4406 20.183 20.1896C18.434 21.9389 16.0625 22.9226 13.589 22.9255V22.9255Z" fill="white"/>
</svg>
