<svg width="16" height="16" viewBox="0 0 16 16" fill="none" xmlns="http://www.w3.org/2000/svg">
<path fill-rule="evenodd" clip-rule="evenodd" d="M7.06965 3.53482C7.06965 5.4871 5.48703 7.06965 3.53482 7.06965C1.58262 7.06965 0 5.48703 0 3.53482C0 1.58262 1.58262 0 3.53482 0C5.48703 0 7.06965 1.58262 7.06965 3.53482Z" fill="white"/>
<path fill-rule="evenodd" clip-rule="evenodd" d="M8.61747 15.193C8.53114 15.3657 8.54011 15.571 8.64202 15.7356C8.74393 15.9 8.92333 16.0006 9.11683 16.0006H15.4424C15.6359 16.0006 15.8153 15.9002 15.9172 15.7356C16.0191 15.5711 16.0281 15.3657 15.9417 15.193L12.7789 8.86744C12.6843 8.67845 12.4908 8.55859 12.2795 8.55859C12.0682 8.55859 11.8748 8.67845 11.7802 8.86744L8.61732 15.193H8.61747Z" fill="white"/>
<path fill-rule="evenodd" clip-rule="evenodd" d="M3.7647 8.26072C3.59202 8.16179 3.37922 8.16179 3.20655 8.26072L0.306417 9.93516C0.133739 10.0348 0.0273438 10.2195 0.0273438 10.4189V13.7678C0.0273438 13.9673 0.133739 14.1518 0.306417 14.2516L3.20655 15.926C3.37923 16.0249 3.59202 16.0249 3.7647 15.926L6.66483 14.2516C6.83751 14.1519 6.9439 13.9673 6.9439 13.7678V10.4189C6.9439 10.2195 6.83751 10.035 6.66483 9.93516L3.7647 8.26072Z" fill="white"/>
<path fill-rule="evenodd" clip-rule="evenodd" d="M15.9997 0.558147C15.9997 0.250043 15.7496 0 15.4415 0H9.48783C9.17973 0 8.92969 0.250043 8.92969 0.558147V6.51182C8.92969 6.81992 9.17973 7.06997 9.48783 7.06997H15.4415C15.7496 7.06997 15.9997 6.81992 15.9997 6.51182V0.558147Z" fill="white"/>
</svg>
