<svg width="16" height="15" viewBox="0 0 16 15" fill="none" xmlns="http://www.w3.org/2000/svg">
<path d="M15.8952 12.8545L8.70736 0.400338C8.38717 -0.133446 7.62206 -0.133446 7.30187 0.400338L0.114016 12.8545C-0.206172 13.3883 0.185129 14.0643 0.825621 14.0643H15.2191C15.8063 14.0822 16.1977 13.4061 15.8952 12.8545H15.8952ZM7.99569 11.8404C7.55089 11.8404 7.21282 11.4846 7.21282 11.0575C7.21282 10.6127 7.56862 10.2746 7.99569 10.2746C8.44048 10.2746 8.77855 10.6304 8.77855 11.0575C8.77855 11.4846 8.44048 11.8404 7.99569 11.8404ZM9.08098 5.18625L8.65395 8.76239C8.65395 9.11819 8.35151 9.42065 7.99569 9.42065C7.63987 9.42065 7.33742 9.1182 7.33742 8.76239L6.91039 5.18625L6.89264 5.0439C6.89264 4.59911 7.39081 4.2433 7.9957 4.2433C8.60059 4.2433 9.09876 4.59911 9.09876 5.0439L9.08098 5.18625Z" fill="white"/>
</svg>
