<svg width="16" height="11" viewBox="0 0 16 11" fill="none" xmlns="http://www.w3.org/2000/svg">
<path fill-rule="evenodd" clip-rule="evenodd" d="M6.95122 9.27098C7.09443 9.40648 7.24465 9.53484 7.40096 9.65528C6.70794 10.0076 5.92357 10.2065 5.09333 10.2065C3.99713 10.2065 2.98114 9.86002 2.14916 9.27098H6.95122ZM8.5893 0.551296C9.28232 0.19897 10.0667 8.82908e-05 10.8969 8.82908e-05C13.7134 8.82908e-05 16 2.28678 16 5.10316C16 7.91965 13.7133 10.2062 10.8969 10.2062C10.0667 10.2062 9.28232 10.0073 8.5893 9.65502C9.95373 8.60519 10.8338 6.95607 10.8338 5.10289C10.8338 3.24983 9.95373 1.60053 8.5893 0.550766V0.551296ZM7.99519 0.906038C9.32499 1.82751 10.1965 3.36434 10.1965 5.10333C10.1965 6.84229 9.32499 8.37925 7.99519 9.30063C6.66551 8.37916 5.79383 6.84232 5.79383 5.10333C5.79383 3.36437 6.66551 1.82742 7.99519 0.906038V0.906038ZM5.61197 7.34597C5.80924 7.80964 6.06574 8.24215 6.37184 8.63379H1.41011C1.04733 8.25546 0.742147 7.82136 0.50899 7.34597H5.61197ZM5.16545 5.42103C5.1896 5.86561 5.26471 6.29683 5.38468 6.70884H0.248339C0.112839 6.2998 0.027606 5.86812 0 5.42103H5.16545ZM5.38526 3.49609C5.26506 3.90822 5.18994 4.33935 5.16545 4.7839H0.000244204C0.0278502 4.33667 0.113198 3.90498 0.249043 3.49609H5.38526ZM6.37207 1.57265C6.06621 1.96396 5.80993 2.39588 5.61291 2.85898H0.509839C0.742996 2.38404 1.04783 1.9505 1.41025 1.57265H6.37207ZM2.14945 0.935396C2.98131 0.346467 3.99733 0 5.0935 0C5.92374 0 6.70811 0.198878 7.40113 0.551208C7.2447 0.671756 7.09448 0.800007 6.95148 0.935396H2.14945Z" fill="white"/>
</svg>
