<svg width="213" height="213" viewBox="0 0 213 213" fill="none" xmlns="http://www.w3.org/2000/svg">
<path fill-rule="evenodd" clip-rule="evenodd" d="M27.4249 66.1643C40.4724 61.9764 55.5915 64.1445 66.1319 70.2732L67.4709 71.0517L66.6498 72.365C65.4129 74.3436 64.5477 75.8264 63.6736 77.3249L63.6691 77.3326C62.7948 78.8313 61.9108 80.3466 60.6499 82.3641L59.8574 83.6322L58.5869 82.8436C52.2955 78.9386 42.7635 77.69 34.3281 80.3427C25.9855 82.9663 18.7833 89.3761 16.8734 100.816L16.6642 102.069H1.04217L1.21712 100.411C3.25668 81.0882 14.2527 70.3923 27.4249 66.1643ZM167.889 64.5697H175.861L212.166 148.07H196.899L172.378 92.2966L161.926 116.07H173.878V131.07H155.331L147.857 148.07H132.103L167.889 64.5697ZM1 111.57H16.622L16.8312 112.823C18.7411 124.263 25.9433 130.673 34.2859 133.296C42.7213 135.949 52.2533 134.7 58.5447 130.795L59.8152 130.007L60.6077 131.275C61.8685 133.292 62.7525 134.807 63.6268 136.306L63.6314 136.314C64.5055 137.812 65.3707 139.295 66.6076 141.274L67.4287 142.587L66.0897 143.366C55.5493 149.494 40.4302 151.662 27.3827 147.474C14.2106 143.246 3.21451 132.551 1.17494 113.227L1 111.57Z" fill="#1E2952"/>
<path d="M111.59 68.1637C106.315 66.2962 100.726 66.0697 95.39 66.0697H71.3779V134.57H85.3779V79.5697H95.39C100.738 79.5697 105.851 79.7348 110.293 81.8786C113.482 83.4177 117.117 85.9039 119.954 89.8767C122.781 93.8338 124.878 99.351 124.878 107.07C124.878 119.474 118.965 126.151 113.088 129.795C110.117 131.636 107.135 132.712 104.889 133.326C103.768 133.632 102.838 133.822 102.195 133.934C101.873 133.99 101.624 134.026 101.458 134.049C101.376 134.06 101.314 134.067 101.276 134.072L101.227 134.077L99.8779 134.212V148.789L101.709 148.537C101.785 148.525 101.896 148.508 102.038 148.484C102.321 148.436 102.731 148.362 103.248 148.256C104.283 148.043 105.75 147.701 107.508 147.18C111.017 146.138 115.71 144.372 120.415 141.472C129.868 135.645 139.378 125.213 139.378 107.07C139.378 94.5428 135.079 85.7079 129.4 79.5474C123.752 73.4201 116.81 70.0118 111.59 68.1637Z" fill="#1E2952"/>
</svg>
